<?xml version="1.0" encoding="utf-8"?>
<!-- Generator: Adobe Illustrator 22.1.0, SVG Export Plug-In . SVG Version: 6.00 Build 0)  -->
<svg version="1.1" id="Слой_1" xmlns="http://www.w3.org/2000/svg" xmlns:xlink="http://www.w3.org/1999/xlink" x="0px" y="0px"
	 viewBox="0 0 850.4 283.5" style="enable-background:new 0 0 850.4 283.5;" xml:space="preserve">
<style type="text/css">
	.st0{fill:#FFFFFF;stroke:#000000; ;stroke-linecap:round;stroke-linejoin:round;}
	.st1{fill:none;stroke:#000000;stroke-width:1.5;stroke-linecap:round;}
	.st2{fill:#FFFFFF;stroke:#000000;stroke-width:1.5;}
	.st3{fill:none;stroke:#000000;stroke-width:1.5;stroke-linecap:round;stroke-linejoin:round;}
	.st4{fill:#FFFFFF;stroke:#000000;stroke-width:1.5;stroke-linejoin:round;}
	.st5{stroke:#000000;stroke-width:1.5;stroke-linecap:round;stroke-linejoin:round;}
	.st6{fill:#FFFFFF;}
	.st7{fill:#FFFFFF;stroke:#000000;stroke-width:1.5;stroke-linecap:round;}
	.st8{stroke:#000000;stroke-width:1.5;}
	.st9{fill:none;stroke:#FFFFFF;stroke-width:1.5;stroke-linecap:round;stroke-linejoin:round;}
	.st10{stroke:#000000;stroke-width:1.5;stroke-linejoin:round;}
	.st11{fill:none;stroke:#000000;stroke-width:1.5;stroke-linejoin:round;}
	.st12{fill:none;stroke:#FFFFFF;stroke-width:1.5;stroke-linecap:round;}
	.st13{fill:#FFFFFF;stroke:#FFFFFF;stroke-width:1.5;stroke-linecap:round;stroke-linejoin:round;}
	.st14{fill:none;stroke:#FFFFFF;stroke-linecap:round;}
	.st15{stroke:#000000;stroke-width:1.5;stroke-linecap:round;}
</style>
<g id="main">
	<g class="f" id="K">
		<rect x="0.5" y="0" class="st0" width="40" height="40" style="fill:none;stroke:none"/>
		<path class="st1" d="M20.5,9.2V3.5"/>
		<path class="st7" d="M20.5,22.5c0,0,4.5-7.5,3-10.5c0,0-1-2.5-3-2.5s-3,2.5-3,2.5C16,15,20.5,22.5,20.5,22.5"/>
		<path class="st7" d="M9.5,34.5c5.5,3.5,15.5,3.5,21,0v-7c0,0,9-4.5,6-10.5c-4-6.5-13.5-3.5-16,4v3.5V21c-3.5-7.5-13-10.5-16-4
			c-3,6,5,10,5,10V34.5z"/>
		<path class="st7" d="M18,5.5h5"/>
		<path class="st7" d="M30,27c0,0,8.5-4,6-9.6c-3.9-5.9-13-1.9-15.5,4.6l0,2.1l0-2.1C18,15.5,7.9,11.5,5,17.4c-2.5,5.6,4.9,9,4.9,9"
			/>
		<path class="st7" d="M9.5,27.5c5.5-3,15.5-3,21,0 M9.5,31c5.5-3,15.5-3,21,0 M9.5,34.5c5.5-3,15.5-3,21,0"/>
	</g>
    <g class="f" id="Q">
		<rect x="0" y="0" class="st0" width="40" height="40" style="fill:none;stroke:none"/>
		<path class="st7" d="M5.5,10c0,1.1-0.9,2-2,2s-2-0.9-2-2s0.9-2,2-2S5.5,8.9,5.5,10z"/>
		<path class="st7" d="M22,5.5c0,1.1-0.9,2-2,2c-1.1,0-2-0.9-2-2s0.9-2,2-2C21.1,3.5,22,4.4,22,5.5z"/>
		<path class="st7" d="M38.5,10c0,1.1-0.9,2-2,2c-1.1,0-2-0.9-2-2s0.9-2,2-2C37.6,8,38.5,8.9,38.5,10z"/>
		<path class="st7" d="M13.5,6.5c0,1.1-0.9,2-2,2s-2-0.9-2-2s0.9-2,2-2S13.5,5.4,13.5,6.5z"/>
		<path class="st7" d="M30.5,7c0,1.1-0.9,2-2,2c-1.1,0-2-0.9-2-2s0.9-2,2-2C29.6,5,30.5,5.9,30.5,7z"/>
		<path class="st4" d="M6.5,24c8.5-1.5,21-1.5,27,0l2-12l-7,11V9L23,22.5l-3-15l-3,15l-5.5-14V23l-7-11L6.5,24z"/>
		<path class="st4" d="M6.5,24c0,2,1.5,2,2.5,4c1,1.5,1,1,0.5,3.5C8,32.5,8,34,8,34c-1.5,1.5,0.5,2.5,0.5,2.5c6.5,1,16.5,1,23,0
			c0,0,1.5-1,0-2.5c0,0,0.5-1.5-1-2.5C30,29,30,29.5,31,28c1-2,2.5-2,2.5-4C25,22.5,15,22.5,6.5,24z"/>
		<path class="st3" d="M9,28c3.5-1,18.5-1,22,0"/>
		<path class="st3" d="M9.5,31.5c6-1,15-1,21,0"/>
	</g>
	<g class="f" id="B">
		<rect class="st0" width="40" height="40" style="fill:none;stroke:none"/>
		<g>
			<path class="st4" d="M6.5,33.8c3.4-1,10.1,0.4,13.5-2c3.4,2.4,10.1,1,13.5,2c0,0,1.7,0.5,3,2c-0.7,1-1.7,1-3,0.5
				c-3.4-1-10.1,0.5-13.5-1c-3.4,1.5-10.1,0-13.5,1c-1.4,0.5-2.3,0.5-3-0.5C4.9,33.9,6.5,33.8,6.5,33.8z"/>
			<path class="st4" d="M12.5,29.8c2.5,2.5,12.5,2.5,15,0c0.5-1.5,0-2,0-2c0-2.5-2.5-4-2.5-4c5.5-1.5,6-11.5-5-15.5
				c-11,4-10.5,14-5,15.5c0,0-2.5,1.5-2.5,4C12.5,27.8,12,28.3,12.5,29.8z"/>
			<path class="st4" d="M22.5,5.8c0,1.4-1.1,2.5-2.5,2.5s-2.5-1.1-2.5-2.5s1.1-2.5,2.5-2.5S22.5,4.4,22.5,5.8z"/>
		</g>
		<path class="st1" d="M15,23.8h10 M12.5,27.8h15 M20,13.3v5 M17.5,15.8h5"/>
	</g>
	<g class="f" id="N">
		<rect x="0.5" y="-0.3" class="st0" width="40" height="40" style="fill:none;stroke:none"/>
		<path class="st7" d="M20.7,6.5c10.5,1,16.5,8,16,29h-23c0-9,10-6.5,8-21"/>
		<path class="st7" d="M22.7,14.5c0.4,2.9-5.5,7.4-8,9c-3,2-2.8,4.3-5,4c-1-0.9,1.4-3,0-3c-1,0,0.2,1.2-1,2c-1,0-4,1-4-4
			c0-2,6-12,6-12s1.9-1.9,2-3.5c-0.7-1-0.5-2-0.5-3c1-1,3,2.5,3,2.5h2c0,0,0.8-2,2.5-3c1,0,1,3,1,3"/>
		<path class="st7" d="M8.2,22c0,0.3-0.2,0.5-0.5,0.5S7.2,22.2,7.2,22s0.2-0.5,0.5-0.5S8.2,21.7,8.2,22z"/>
		<path class="st7" d="M13.6,12.2c-0.4,0.7-0.9,1.2-1.2,1c-0.2-0.1-0.1-0.8,0.3-1.5c0.4-0.7,0.9-1.2,1.2-1
			C14.2,10.8,14,11.5,13.6,12.2z"/>
	</g>
	<g class="f" id="R">
		<rect y="-0.3" class="st0" width="40" height="40" style="fill:none;stroke:none"/>
		<path class="st4" d="M7,34.9h27v-3H7V34.9z"/>
		<path class="st4" d="M10,31.9v-4h21v4H10z"/>
		<path class="st4" d="M9,9.9v-5h4v2h5v-2h5v2h5v-2h4v5"/>
		<path class="st0" d="M32,9.9l-3,3H12l-3-3"/>
		<path class="st2" d="M29,12.9v12.5H12V12.9"/>
		<path class="st0" d="M29,25.4l1.5,2.5h-20l1.5-2.5"/>
		<path class="st1" d="M9,9.9h23"/>
	</g>
	<g class="f" id="P">
		<rect x="0" y="0" class="st6" width="40" height="40" style="fill:none;stroke:none"/>
		<path class="st7" d="M20,4.8c-2.2,0-4,1.8-4,4c0,0.9,0.3,1.7,0.8,2.4c-1.9,1.1-3.3,3.2-3.3,5.6c0,2,0.9,3.8,2.4,5
			c-3,1.1-7.4,5.5-7.4,13.5h23c0-7.9-4.4-12.4-7.4-13.5c1.5-1.2,2.4-3,2.4-5c0-2.4-1.3-4.5-3.3-5.6c0.5-0.7,0.8-1.5,0.8-2.4
			C24,6.6,22.2,4.8,20,4.8z"/>
	</g>
	<g class="f" id="k">
		<rect x="0.5" y="0" class="st0" width="40" height="40" style="fill:none;stroke:none"/>
		<path class="st1" d="M20.5,9.2V3.5"/>
		<path class="st8" d="M20.5,22.5c0,0,4.5-7.5,3-10.5c0,0-1-2.5-3-2.5s-3,2.5-3,2.5C16,15,20.5,22.5,20.5,22.5"/>
		<path class="st5" d="M9.5,34.5c5.5,3.5,15.5,3.5,21,0v-7c0,0,9-4.5,6-10.5c-4-6.5-13.5-3.5-16,4v3.5V21c-3.5-7.5-13-10.5-16-4
			c-3,6,5,10,5,10V34.5z"/>
		<path class="st1" d="M18,5.5h5"/>
		<path class="st9" d="M30,27c0,0,8.5-4,6-9.6c-3.9-5.9-13-1.9-15.5,4.6l0,2.1l0-2.1C18,15.5,7.9,11.5,5,17.4c-2.5,5.6,4.9,9,4.9,9"
			/>
		<path class="st9" d="M9.5,27.5c5.5-3,15.5-3,21,0 M9.5,31c5.5-3,15.5-3,21,0 M9.5,34.5c5.5-3,15.5-3,21,0"/>
	</g>
	<g class="f" id="q">
		<rect y="-0.3" class="st6" width="40" height="40" style="fill:none;stroke:none"/>
		<g>
			<circle cx="3.5" cy="9" r="2.8"/>
			<circle cx="11.5" cy="6" r="2.8"/>
			<circle cx="20" cy="5" r="2.8"/>
			<circle cx="28.5" cy="6" r="2.8"/>
			<circle cx="36.5" cy="9" r="2.8"/>
		</g>
		<path class="st10" d="M6.5,23c8.5-1.5,21-1.5,27,0L36,10.5L28.5,22L28.2,7.9L23,21.5L20,7l-3,14.5L11.8,7.9L11.5,22L4,10.5L6.5,23
			z"/>
		<path class="st10" d="M6.5,23c0,2,1.5,2,2.5,4c1,1.5,1,1,0.5,3.5C8,31.5,8,33,8,33c-1.5,1.5,0.5,2.5,0.5,2.5c6.5,1,16.5,1,23,0
			c0,0,1.5-1,0-2.5c0,0,0.5-1.5-1-2.5C30,28,30,28.5,31,27c1-2,2.5-2,2.5-4C25,21.5,15,21.5,6.5,23z"/>
		<path class="st11" d="M8.5,35.5c7.4,2.6,15.6,2.6,23,0"/>
		<path class="st9" d="M8.5,26c7.4-2.6,15.6-2.6,23,0"/>
		<path class="st9" d="M10,28.5h20"/>
		<path class="st9" d="M9,31.5c7.1,2.4,14.9,2.4,22,0"/>
		<path class="st9" d="M8,34.5c7.7,2.8,16.3,2.8,24,0"/>
	</g>
	<g class="f" id="b">
		<rect x="0" y="-0.3" class="st0" width="40" height="40" style="fill:none;stroke:none"/>
		<g>
			<path class="st10" d="M6.5,33.5c3.4-1,10.1,0.4,13.5-2c3.4,2.4,10.1,1,13.5,2c0,0,1.7,0.5,3,2c-0.7,1-1.7,1-3,0.5
				c-3.4-1-10.1,0.5-13.5-1c-3.4,1.5-10.1,0-13.5,1c-1.4,0.5-2.3,0.5-3-0.5C4.9,33.6,6.5,33.5,6.5,33.5z"/>
			<path class="st10" d="M12.5,29.5c2.5,2.5,12.5,2.5,15,0c0.5-1.5,0-2,0-2c0-2.5-2.5-4-2.5-4C30.5,22,31,12,20,8
				C9,12,9.5,22,15,23.5c0,0-2.5,1.5-2.5,4C12.5,27.5,12,28,12.5,29.5z"/>
			<path class="st10" d="M22.5,5.5C22.5,6.9,21.4,8,20,8s-2.5-1.1-2.5-2.5S18.6,3,20,3S22.5,4.1,22.5,5.5z"/>
		</g>
		<path class="st12" d="M15,23.5h10 M12.5,27.5h15 M20,13v5 M17.5,15.5h5"/>
	</g>
	<g class="f" id="n">
		<rect class="st0" width="40" height="40" style="fill:none;stroke:none"/>
		<path class="st5" d="M20,7.6c10.5,1,16.5,8,16,29H13c0-9,10-6.5,8-21"/>
		<path class="st5" d="M22,15.6c0.4,2.9-5.5,7.4-8,9c-3,2-2.8,4.3-5,4c-1-0.9,1.4-3,0-3c-1,0,0.2,1.2-1,2c-1,0-4,1-4-4
			c0-2,6-12,6-12s1.9-1.9,2-3.5c-0.7-1-0.5-2-0.5-3c1-1,3,2.5,3,2.5h2c0,0,0.8-2,2.5-3c1,0,1,3,1,3"/>
		<path class="st13" d="M7.5,23.1c0,0.3-0.2,0.5-0.5,0.5s-0.5-0.2-0.5-0.5s0.2-0.5,0.5-0.5S7.5,22.8,7.5,23.1z"/>
		<path class="st13" d="M12.9,13.3c-0.4,0.7-0.9,1.2-1.2,1c-0.2-0.1-0.1-0.8,0.3-1.5c0.4-0.7,0.9-1.2,1.2-1
			C13.5,11.9,13.3,12.6,12.9,13.3z"/>
		<path class="st6" d="M22.5,8l-0.4,1.5l0.5,0.1c3.1,1,5.6,2.5,7.9,6.7s3.3,10.3,2.8,20.3l0,0.5h2.3l0-0.5
			c0.5-10.1-0.9-16.9-3.3-21.3s-5.8-6.6-9.2-7.2L22.5,8z"/>
	</g>
	<g class="f" id="r">
		<rect class="st0" width="40" height="40" style="fill:none;stroke:none"/>
		<path class="st10" d="M6.5,35.2h27v-3h-27V35.2z"/>
		<path class="st10" d="M10,28.2l1.5-2.5h17l1.5,2.5H10z"/>
		<path class="st10" d="M9.5,32.2v-4h21v4H9.5z"/>
		<path class="st8" d="M11.5,25.7v-13h17v13H11.5z"/>
		<path class="st10" d="M11.5,12.7l-3-2.5h23l-3,2.5H11.5z"/>
		<path class="st10" d="M8.5,10.2v-5h4v2h5v-2h5v2h5v-2h4v5H8.5z"/>
		<path class="st14" d="M9.5,31.7h21l0,0"/>
		<path class="st14" d="M10.5,27.7h19"/>
		<path class="st14" d="M11.5,25.7h17"/>
		<path class="st14" d="M11.5,12.7h17"/>
		<path class="st14" d="M8.5,10.2h23"/>
	</g>
	<g class="f" id="p">
		<rect x="0" class="st6" width="40" height="40" style="fill:none;stroke:none"/>
		<path class="st15" d="M19.4,4.8c-2.2,0-4,1.8-4,4c0,0.9,0.3,1.7,0.8,2.4c-1.9,1.1-3.3,3.2-3.3,5.6c0,2,0.9,3.8,2.4,5
			c-3,1.1-7.4,5.5-7.4,13.5h23c0-7.9-4.4-12.4-7.4-13.5c1.5-1.2,2.4-3,2.4-5c0-2.4-1.3-4.5-3.3-5.6c0.5-0.7,0.8-1.5,0.8-2.4
			C23.4,6.5,21.6,4.8,19.4,4.8z"/>
	</g>
</g>
</svg>
